<svg width="33" height="32" viewBox="0 0 33 32" fill="none" xmlns="http://www.w3.org/2000/svg">
<g id="headphones 1" clip-path="url(#clip0_261_64)">
<g id="Group">
<path id="Vector" d="M27.4479 12.1681V10.9378C27.4479 7.99328 26.4059 5.25714 24.5168 3.22689C22.5807 1.14286 19.9185 0 17.0143 0H15.9992C13.095 0 10.4328 1.14286 8.49664 3.22689C6.60757 5.25714 5.56555 7.99328 5.56555 10.9378V12.1681C3.27311 12.3227 1.45126 14.2319 1.45126 16.5647V18.4874C1.45126 20.9143 3.42773 22.8908 5.85463 22.8908H8.3353C8.779 22.8908 9.14202 22.5277 9.14202 22.084V12.9613C9.14202 12.5176 8.779 12.1546 8.3353 12.1546H7.17899V10.9378C7.17899 5.62017 10.9706 1.61345 15.9924 1.61345H17.0076C22.0361 1.61345 25.821 5.62017 25.821 10.9378V12.1546H24.6647C24.221 12.1546 23.858 12.5176 23.858 12.9613V22.0773C23.858 22.521 24.221 22.884 24.6647 22.884H25.7941C25.4647 27.0924 22.5672 28.0672 21.2227 28.2891C20.8529 27.1529 19.784 26.3328 18.5269 26.3328H16.5101C14.9504 26.3328 13.6798 27.6034 13.6798 29.163C13.6798 30.7227 14.9504 32 16.5101 32H18.5336C19.8378 32 20.9336 31.1126 21.263 29.916C21.9219 29.8218 22.9639 29.5866 23.9992 28.9815C25.458 28.1277 27.1857 26.3866 27.4143 22.8773C29.7202 22.7361 31.5487 20.8202 31.5487 18.4807V16.558C31.5555 14.2319 29.7403 12.316 27.4479 12.1681ZM7.54202 21.2706H5.86807C4.32857 21.2706 3.07815 20.0202 3.07815 18.4807V16.558C3.07815 15.0185 4.32857 13.7681 5.86807 13.7681H7.54202V21.2706ZM18.5336 30.3866H16.5101C15.8378 30.3866 15.2933 29.842 15.2933 29.1697C15.2933 28.4975 15.8378 27.9529 16.5101 27.9529H18.5336C19.2059 27.9529 19.7504 28.4975 19.7504 29.1697C19.7504 29.842 19.2059 30.3866 18.5336 30.3866ZM29.942 18.4807C29.942 20.0202 28.6916 21.2706 27.1521 21.2706H25.4782V13.7681H27.1521C28.6916 13.7681 29.942 15.0185 29.942 16.558V18.4807Z" fill="#98A70D"/>
</g>
</g>
<defs>
<clipPath id="clip0_261_64">
<rect width="32" height="32" fill="white" transform="translate(0.5)"/>
</clipPath>
</defs>
</svg>
