<svg width="18" height="18" viewBox="0 0 18 18" fill="none" xmlns="http://www.w3.org/2000/svg">
<g id="instagram 1" clip-path="url(#clip0_329_852)">
<path id="Vector" d="M17.9824 5.29205C17.9402 4.33564 17.7855 3.67812 17.564 3.10836C17.3354 2.50359 16.9838 1.96213 16.5231 1.51201C16.073 1.05489 15.528 0.699691 14.9302 0.474702C14.3571 0.253147 13.703 0.0984842 12.7466 0.0563159C11.7831 0.0105764 11.4772 0 9.03336 0C6.58953 0 6.28364 0.0105764 5.32366 0.0527447C4.36725 0.0949129 3.70973 0.249713 3.14011 0.471131C2.5352 0.699691 1.99374 1.05132 1.54363 1.51201C1.08651 1.96213 0.731444 2.50716 0.506318 3.10493C0.284763 3.67812 0.1301 4.33207 0.087932 5.28848C0.0421926 6.25203 0.0316162 6.55792 0.0316162 9.00176C0.0316162 11.4456 0.0421926 11.7515 0.0843608 12.7115C0.126529 13.6679 0.281329 14.3254 0.502884 14.8952C0.731444 15.4999 1.08651 16.0414 1.54363 16.4915C1.99374 16.9486 2.53877 17.3038 3.13654 17.5288C3.70973 17.7504 4.36368 17.905 5.32022 17.9472C6.28007 17.9895 6.58609 17.9999 9.02993 17.9999C11.4738 17.9999 11.7797 17.9895 12.7396 17.9472C13.696 17.905 14.3536 17.7504 14.9232 17.5288C16.1329 17.0611 17.0893 16.1047 17.557 14.8952C17.7784 14.322 17.9332 13.6679 17.9754 12.7115C18.0175 11.7515 18.0281 11.4456 18.0281 9.00176C18.0281 6.55792 18.0245 6.25203 17.9824 5.29205ZM16.3614 12.6411C16.3227 13.5202 16.175 13.9949 16.052 14.3114C15.7495 15.0956 15.1271 15.7179 14.343 16.0204C14.0265 16.1434 13.5484 16.2911 12.6727 16.3297C11.7233 16.372 11.4386 16.3824 9.03693 16.3824C6.63527 16.3824 6.34696 16.372 5.40099 16.3297C4.52191 16.2911 4.04721 16.1434 3.73074 16.0204C3.34052 15.8761 2.98531 15.6476 2.697 15.3487C2.39812 15.0568 2.16956 14.7052 2.02533 14.315C1.90226 13.9985 1.75461 13.5202 1.71601 12.6447C1.6737 11.6953 1.66326 11.4104 1.66326 9.00876C1.66326 6.60709 1.6737 6.31878 1.71601 5.37295C1.75461 4.49387 1.90226 4.01917 2.02533 3.7027C2.16956 3.31234 2.39812 2.95727 2.70058 2.66883C2.99232 2.36994 3.34395 2.14138 3.73431 1.99729C4.05078 1.87422 4.52905 1.72656 5.40456 1.68783C6.35396 1.64566 6.63884 1.63508 9.04037 1.63508C11.4456 1.63508 11.7303 1.64566 12.6763 1.68783C13.5554 1.72656 14.0301 1.87422 14.3466 1.99729C14.7368 2.14138 15.092 2.36994 15.3803 2.66883C15.6792 2.96071 15.9077 3.31234 16.052 3.7027C16.175 4.01917 16.3227 4.49731 16.3614 5.37295C16.4036 6.32236 16.4142 6.60709 16.4142 9.00876C16.4142 11.4104 16.4036 11.6917 16.3614 12.6411Z" fill="white"/>
<path id="Vector_2" d="M9.03334 4.37769C6.48058 4.37769 4.40939 6.44874 4.40939 9.00164C4.40939 11.5545 6.48058 13.6256 9.03334 13.6256C11.5862 13.6256 13.6573 11.5545 13.6573 9.00164C13.6573 6.44874 11.5862 4.37769 9.03334 4.37769ZM9.03334 12.0011C7.37724 12.0011 6.0339 10.6579 6.0339 9.00164C6.0339 7.3454 7.37724 6.00219 9.03334 6.00219C10.6896 6.00219 12.0328 7.3454 12.0328 9.00164C12.0328 10.6579 10.6896 12.0011 9.03334 12.0011Z" fill="white"/>
<path id="Vector_3" d="M14.9198 4.19496C14.9198 4.79109 14.4364 5.27445 13.8401 5.27445C13.244 5.27445 12.7607 4.79109 12.7607 4.19496C12.7607 3.5987 13.244 3.11548 13.8401 3.11548C14.4364 3.11548 14.9198 3.5987 14.9198 4.19496Z" fill="white"/>
</g>
<defs>
<clipPath id="clip0_329_852">
<rect width="18" height="18" fill="white"/>
</clipPath>
</defs>
</svg>
