<svg width="197" height="197" viewBox="0 0 197 197" fill="none" xmlns="http://www.w3.org/2000/svg">
<g id="Frame 5">
<rect x="0.0459595" width="196.908" height="196.908" rx="88.8638" fill="#F5F5DC"/>
<path id="Vector" fill-rule="evenodd" clip-rule="evenodd" d="M108.933 139.821L118.679 160.757C119.005 161.456 119.982 161.5 120.369 160.833L127.745 148.141L142.206 150.668C142.967 150.801 143.561 150.025 143.235 149.325L131.703 124.556C129.327 125.784 126.454 131.126 124.906 133.493C121.409 138.838 115.072 141.317 108.933 139.821ZM99.8664 89.0702L139.254 43.7159C141.347 41.6021 144.762 41.5952 146.87 43.6923C148.978 45.788 148.984 49.1931 146.894 51.3041C139.723 58.5413 110.896 93.32 103.692 100.524C101.586 102.629 98.1702 102.629 96.0633 100.524L81.1102 85.5709C79.0048 83.4654 79.0048 80.0479 81.1102 77.9425C83.2157 75.837 86.6332 75.837 88.7387 77.9425L99.8664 89.0702ZM104.936 37.8267C114.366 44.8851 112.973 44.5425 125.268 45.2263C127.374 45.3428 129.308 46.0363 130.91 47.1722L119.011 60.791C113.428 56.2223 106.292 53.4788 98.5169 53.4788C80.6331 53.4788 66.1364 67.977 66.1364 85.8594C66.1364 103.743 80.6331 118.24 98.5169 118.24C116.401 118.24 130.897 103.742 130.897 85.8594C130.897 82.9093 130.501 80.0521 129.761 77.3364C132.995 73.5957 136.225 69.8522 139.465 66.117L145.923 72.2156C149.433 75.5305 150.33 80.5528 148.153 84.8621C142.483 96.0801 142.905 93.6889 144.396 106.169C144.968 110.962 142.414 115.388 137.975 117.29C126.42 122.239 128.282 120.677 121.401 131.197C118.759 135.237 113.955 136.985 109.334 135.588C97.3019 131.952 99.7305 131.952 87.6984 135.588C83.077 136.985 78.2739 135.237 75.6317 131.197C68.7522 120.677 70.6122 122.239 59.0572 117.29C54.6188 115.39 52.064 110.962 52.6368 106.169L53.5939 98.1633C53.856 95.9733 53.512 94.0259 52.5176 92.0578L48.8795 84.8621C46.7019 80.5528 47.5896 75.5208 51.1098 72.2156C60.275 63.6135 59.0614 65.7162 61.9283 53.4788C63.0295 48.7784 66.945 45.4926 71.7647 45.2249C84.3156 44.5272 82.0326 45.3567 92.0966 37.8253C95.9607 34.9335 101.07 34.9335 104.936 37.8267ZM88.0979 139.821C81.9591 141.317 75.622 138.839 72.1254 133.493C70.5789 131.128 67.7037 125.784 65.3278 124.556L53.7964 149.325C53.4704 150.025 54.0641 150.801 54.8255 150.668L69.2862 148.141L76.6622 160.833C77.0505 161.5 78.027 161.456 78.3515 160.757L88.0979 139.821Z" fill="#EE1E3A"/>
</g>
</svg>
