<svg width="197" height="197" viewBox="0 0 197 197" fill="none" xmlns="http://www.w3.org/2000/svg">
<g id="Frame 7">
<rect x="0.0459747" width="196.908" height="196.908" rx="88.8638" fill="#F5F5DC"/>
<path id="Vector" d="M139.1 80.8966L119.876 81.0214V103.588C119.873 105.461 119.261 107.283 118.133 108.779C117.005 110.275 115.421 111.364 113.621 111.882V143.339H133.968L136.742 109.843C136.759 109.223 137.012 108.633 137.451 108.194C137.89 107.756 138.48 107.502 139.1 107.485C140.133 107.484 141.124 107.073 141.855 106.343C142.586 105.612 142.996 104.621 142.997 103.588V84.794C142.996 83.7606 142.586 82.7697 141.855 82.0389C141.124 81.3082 140.133 80.8973 139.1 80.8966ZM115.16 103.588V77.8591C115.16 76.8256 114.749 75.8347 114.018 75.104C113.287 74.3732 112.296 73.9624 111.263 73.9617H86.0337C85.0003 73.9624 84.0094 74.3732 83.2786 75.104C82.5479 75.8347 82.137 76.8256 82.1363 77.8591V103.588C82.137 104.621 82.5479 105.612 83.2786 106.343C84.0094 107.073 85.0003 107.484 86.0337 107.485C86.6591 107.485 87.2588 107.733 87.701 108.176C88.1432 108.618 88.3916 109.218 88.3916 109.843V151.661H108.905V109.843C108.905 109.218 109.154 108.618 109.596 108.176C110.038 107.733 110.638 107.485 111.263 107.485C112.296 107.484 113.287 107.073 114.018 106.343C114.749 105.612 115.16 104.621 115.16 103.588ZM77.4205 103.588V80.8966H57.8918C56.8584 80.8973 55.8675 81.3082 55.1367 82.0389C54.406 82.7697 53.9951 83.7606 53.9944 84.794V103.588C53.9951 104.621 54.406 105.612 55.1367 106.343C55.8675 107.073 56.8584 107.484 57.8918 107.485C58.2041 107.475 58.5151 107.53 58.8056 107.645C59.0961 107.76 59.36 107.933 59.5809 108.154C59.8019 108.375 59.9752 108.639 60.0902 108.929C60.2052 109.22 60.2595 109.531 60.2497 109.843L63.0237 143.339H83.6758V111.882C81.8752 111.364 80.2916 110.275 79.1634 108.779C78.0352 107.283 77.4236 105.461 77.4205 103.588ZM129.793 76.8188C131.939 76.8188 134.036 76.1826 135.82 74.9907C137.604 73.7987 138.994 72.1046 139.815 70.1224C140.636 68.1403 140.851 65.9592 140.432 63.855C140.014 61.7507 138.981 59.8179 137.463 58.3008C135.946 56.7838 134.014 55.7506 131.909 55.3321C129.805 54.9135 127.624 55.1283 125.642 55.9494C123.66 56.7704 121.966 58.1608 120.774 59.9446C119.582 61.7285 118.945 63.8258 118.945 65.9712C118.949 68.8472 120.093 71.6043 122.127 73.6381C124.16 75.6718 126.917 76.8148 129.793 76.8188ZM99.1893 69.4262C101.573 69.4235 103.901 68.7143 105.882 67.3882C107.862 66.0621 109.405 64.1788 110.315 61.9762C111.225 59.7735 111.462 57.3505 110.995 55.0134C110.528 52.6763 109.379 50.53 107.693 48.8458C106.007 47.1615 103.859 46.015 101.522 45.551C99.184 45.0871 96.7613 45.3266 94.5598 46.2392C92.3582 47.1519 90.4766 48.6968 89.1528 50.6785C87.829 52.6603 87.1225 54.9901 87.1225 57.3733C87.1262 60.5712 88.3991 63.6369 90.6617 65.8968C92.9242 68.1568 95.9914 69.4262 99.1893 69.4262ZM67.2054 76.8202C69.3509 76.8205 71.4483 76.1845 73.2324 74.9928C75.0165 73.801 76.407 72.1069 77.2283 70.1248C78.0495 68.1427 78.2645 65.9615 77.8461 63.8572C77.4277 61.7529 76.3947 59.8199 74.8777 58.3027C73.3607 56.7855 71.4278 55.7522 69.3236 55.3336C67.2193 54.9149 65.0381 55.1296 63.0559 55.9506C61.0737 56.7716 59.3795 58.162 58.1874 59.9459C56.9954 61.7298 56.3592 63.8271 56.3592 65.9726C56.3643 68.8466 57.5077 71.6015 59.5391 73.6344C61.5705 75.6674 64.3245 76.8129 67.1985 76.8202H67.2054Z" fill="#EFA021"/>
</g>
</svg>
