<svg width="197" height="197" viewBox="0 0 197 197" fill="none" xmlns="http://www.w3.org/2000/svg">
<g id="Frame 6">
<rect x="0.0459747" width="196.908" height="196.908" rx="88.8638" fill="#F5F5DC"/>
<g id="Group 2">
<path id="Vector" d="M125.975 77.6331C131.467 77.6331 138.666 76.5235 144.491 71.78C153.992 64.0406 151.717 48.1597 151.62 47.4939C151.551 47.0362 151.19 46.6895 150.733 46.6201C136.835 44.6783 126.904 46.9252 121.245 53.2915C114.13 61.2805 116.183 72.9451 116.752 75.4971C113.132 79.8939 110.552 84.1519 108.721 88.0771C108.624 84.4293 107.916 79.88 105.767 75.1088C105.961 74.3737 109.525 59.9629 101.009 50.4066C94.8511 43.4994 84.0604 41.0583 68.9284 43.1665C68.4707 43.2359 68.11 43.5826 68.0407 44.0403C67.9297 44.7754 65.447 62.0434 75.7801 70.4485C82.1047 75.5942 89.9412 76.8148 95.9191 76.8148C99.4975 76.8148 102.396 76.3848 103.894 76.0935C107.445 84.138 106.654 91.5861 106.169 94.374C106.918 94.4156 107.653 94.4849 108.416 94.582C110.066 89.4779 113.034 83.292 118.291 76.8841C119.526 77.1338 122.369 77.6053 125.989 77.6053L125.975 77.6331ZM105.253 75.7745C105.101 75.8577 104.921 75.8993 104.754 75.8993C104.394 75.8993 104.033 75.7052 103.839 75.3584C103.769 75.2336 97.1396 63.4026 82.5208 56.1764C82.0076 55.9268 81.7996 55.3026 82.0492 54.7894C82.2989 54.2763 82.923 54.0682 83.4362 54.3179C98.6792 61.8492 105.378 73.8466 105.656 74.3598C105.933 74.8591 105.753 75.4971 105.24 75.7745H105.253ZM137.376 56.8422C137.889 56.5925 138.513 56.8006 138.763 57.3138C139.013 57.8269 138.805 58.4511 138.291 58.7007C124.907 65.3028 118.846 76.1351 118.79 76.2461C118.79 76.2738 118.749 76.2738 118.735 76.3016C119.012 75.8716 118.943 75.2891 118.541 74.9562C118.097 74.5817 117.445 74.6511 117.071 75.081C117.043 75.1088 117.029 75.1365 117.001 75.1642C117.556 74.1656 123.742 63.5691 137.362 56.8422H137.376Z" fill="#4E7D4E"/>
<path id="Vector_2" d="M124.796 115.276C124.685 115.401 124.532 115.484 124.38 115.54L113.561 119.299C113.45 119.34 113.339 119.354 113.228 119.354C113.187 119.354 113.145 119.354 113.117 119.354L94.8924 117.329C94.3237 117.26 93.9076 116.747 93.977 116.178C94.0463 115.609 94.5595 115.207 95.1282 115.262L112.646 117.204C113.187 116.081 114.185 113.529 113.381 111.601C112.895 110.45 111.827 109.687 110.108 109.257C110.08 109.257 110.052 109.257 110.038 109.229L95.2253 104.291C95.0866 104.25 94.9479 104.167 94.8369 104.07C94.7676 104 87.4027 97.2039 79.6772 97.8558C64.5729 99.1319 59.9542 116.927 59.9126 117.107L55.4604 130.852L78.4844 136.123L80.0794 131.74C80.232 131.31 80.6481 131.033 81.1058 131.06L109.456 132.406L131.134 124.056L140.58 112.697C141.509 111.587 141.883 110.131 141.62 108.716C141.356 107.301 140.483 106.081 139.22 105.373C137.376 104.347 135.101 104.624 133.548 106.067L124.824 115.29L124.796 115.276Z" fill="#4E7D4E"/>
<path id="Vector_3" d="M48.4636 131.409L45.0013 146.538L79.5187 154.437L82.981 139.308L48.4636 131.409Z" fill="#4E7D4E"/>
</g>
</g>
</svg>
