<svg width="18" height="18" viewBox="0 0 18 18" fill="none" xmlns="http://www.w3.org/2000/svg">
<g id="pinterest 1">
<path id="Vector" d="M9.24465 0C4.3113 0 1.68768 3.16139 1.68768 6.60855C1.68768 8.20724 2.58097 10.2008 4.01091 10.8331C4.22805 10.931 4.34618 10.8894 4.39455 10.688C4.43731 10.535 4.62519 9.79807 4.71632 9.45042C4.74445 9.33904 4.72982 9.24229 4.63982 9.13766C4.16504 8.58864 3.78815 7.58847 3.78815 6.65017C3.78815 4.24594 5.69961 1.91146 8.95213 1.91146C11.7648 1.91146 13.7325 3.73854 13.7325 6.35204C13.7325 9.30529 12.1698 11.3484 10.1391 11.3484C9.01514 11.3484 8.1781 10.4663 8.44361 9.37505C8.76425 8.07561 9.39315 6.6783 9.39315 5.74113C9.39315 4.90072 8.91838 4.20544 7.94859 4.20544C6.80441 4.20544 5.87625 5.33837 5.87625 6.85943C5.87625 7.82585 6.21826 8.47838 6.21826 8.47838C6.21826 8.47838 5.08646 13.0506 4.87608 13.9045C4.52056 15.3502 4.92445 17.6914 4.95933 17.8928C4.98071 18.0042 5.10559 18.0391 5.17534 17.9479C5.28672 17.8017 6.65478 15.8497 7.03842 14.4389C7.17793 13.9248 7.75058 11.84 7.75058 11.84C8.12747 12.5207 9.2154 13.0911 10.3742 13.0911C13.8214 13.0911 16.3122 10.0613 16.3122 6.30141C16.2998 2.69675 13.2149 0 9.24465 0Z" fill="white"/>
</g>
</svg>
