<svg width="32" height="32" viewBox="0 0 32 32" fill="none" xmlns="http://www.w3.org/2000/svg">
<g id="shopping-bag" clip-path="url(#clip0_261_74)">
<g id="Group">
<g id="Group_2">
<path id="Vector" d="M28.7841 27.7342L26.9426 6.98158C26.9095 6.5709 26.5651 6.25957 26.1478 6.25957H22.2662C22.2595 2.80853 19.451 0 16 0C12.5489 0 9.7404 2.80853 9.73378 6.25957H5.85218C5.4415 6.25957 5.09705 6.5709 5.05731 6.98158L3.21587 27.7342C3.21587 27.7607 3.21587 27.7806 3.21587 27.8071C3.21587 30.1188 5.34214 32 7.95195 32H24.048C26.6578 32 28.7841 30.1188 28.7841 27.8071C28.7841 27.7806 28.7841 27.7607 28.7841 27.7342ZM16 1.58973C18.5767 1.58973 20.6698 3.68288 20.6764 6.25957H11.3235C11.3301 3.68288 13.4233 1.58973 16 1.58973ZM24.048 30.4036H7.95195C6.22974 30.4036 4.82547 29.2577 4.8056 27.8336L6.58081 7.84931H9.73378V10.638C9.73378 11.0751 10.0915 11.4328 10.5286 11.4328C10.9658 11.4328 11.3235 11.0751 11.3235 10.638V7.84931H20.6764V10.638C20.6764 11.0751 21.0341 11.4328 21.4713 11.4328C21.9085 11.4328 22.2662 11.0751 22.2662 10.638V7.84931H25.4191L27.1943 27.8402C27.1745 29.2577 25.7702 30.4036 24.048 30.4036Z" fill="#98A70D"/>
<path id="Vector_2" d="M19.3053 16.5464L14.6155 21.2361L12.7012 19.3218C12.3899 19.0105 11.8865 19.0105 11.5752 19.3218C11.2639 19.6331 11.2639 20.1365 11.5752 20.4479L14.0525 22.9252C14.2049 23.0776 14.4102 23.157 14.6155 23.157C14.8209 23.157 15.0196 23.0776 15.1786 22.9252L20.4313 17.6725C20.7426 17.3611 20.7426 16.8577 20.4313 16.5464C20.12 16.2417 19.6166 16.2417 19.3053 16.5464Z" fill="#98A70D"/>
</g>
</g>
</g>
<defs>
<clipPath id="clip0_261_74">
<rect width="32" height="32" fill="white"/>
</clipPath>
</defs>
</svg>
